<svg xmlns="http://www.w3.org/2000/svg" width="64" height="64" viewBox="0 0 64 64" role="img" aria-label="AKWABA">
  <rect width="64" height="64" rx="14" ry="14" fill="#f54900"/>
  <!-- Lettre A geometrique et grasse, lisible des 16px. Couleur primary-foreground (#fffcf3). -->
  <path fill="#fffcf3" d="M32 14c1.7 0 3.2 1 3.9 2.6l13.1 30.2c.9 2-.6 4.2-2.8 4.2-1.2 0-2.3-.7-2.8-1.8l-2.9-6.7H24.2l-2.9 6.7c-.5 1.1-1.6 1.8-2.8 1.8-2.2 0-3.7-2.2-2.8-4.2L28.1 16.6C28.8 15 30.3 14 32 14Zm0 11.4-5 11.5h10l-5-11.5Z"/>
</svg>
